<svg width="270" height="252" viewBox="0 0 270 252" fill="none" xmlns="http://www.w3.org/2000/svg">
<path d="M230 134.5C230 183.889 189.522 224 139.5 224C89.478 224 49 183.889 49 134.5C49 85.1105 89.478 45 139.5 45C189.522 45 230 85.1105 230 134.5Z" stroke="#E4722B" stroke-width="8"/>
<path d="M139.854 141.427L139.5 141.073L139.146 141.427L96.4424 184.137C95.5699 185.01 94.3865 185.5 93.1526 185.5C91.9186 185.5 90.7352 185.01 89.8627 184.137C88.9902 183.265 88.5 182.081 88.5 180.847C88.5 179.613 88.9902 178.43 89.8627 177.558L132.573 134.854L132.927 134.5L132.573 134.146L89.8627 91.4424C89.8627 91.4424 89.8627 91.4424 89.8627 91.4424C88.9902 90.5699 88.5 89.3865 88.5 88.1526C88.5 86.9186 88.9902 85.7352 89.8627 84.8627C90.7352 83.9902 91.9186 83.5 93.1526 83.5C94.3865 83.5 95.5699 83.9902 96.4424 84.8627C96.4424 84.8627 96.4424 84.8627 96.4424 84.8627L139.146 127.573L139.5 127.927L139.854 127.573L182.558 84.8627C183.43 83.9902 184.613 83.5 185.847 83.5C187.081 83.5 188.265 83.9902 189.137 84.8627C190.01 85.7352 190.5 86.9186 190.5 88.1526C190.5 89.3865 190.01 90.5699 189.137 91.4424L146.427 134.146L146.073 134.5L146.427 134.854L189.137 177.558C189.569 177.99 189.912 178.502 190.146 179.067C190.38 179.631 190.5 180.236 190.5 180.847C190.5 181.458 190.38 182.063 190.146 182.628C189.912 183.192 189.569 183.705 189.137 184.137C188.705 184.569 188.192 184.912 187.628 185.146C187.063 185.38 186.458 185.5 185.847 185.5C185.236 185.5 184.631 185.38 184.067 185.146C183.502 184.912 182.99 184.569 182.558 184.137L139.854 141.427Z" fill="#E4722B" stroke="#E4722B"/>
<circle cx="52" cy="34" r="7" fill="#261105"/>
<circle cx="190.5" cy="15.5" r="15.5" fill="#F1B48E"/>
<circle cx="20" cy="71" r="9" fill="#E4722B"/>
<circle cx="38" cy="221" r="7" fill="#71340E"/>
<circle cx="222" cy="235" r="7" fill="#71340E"/>
<circle cx="248.5" cy="208.5" r="5.5" fill="#E4722B"/>
<circle cx="260" cy="70" r="10" fill="#F1B48E"/>
<circle cx="7" cy="146" r="7" fill="#71340E"/>
<circle cx="229" cy="45" r="7" fill="#E4722B"/>
<circle cx="69.5" cy="241.5" r="10.5" fill="#F1B48E"/>
</svg>
